# xmcd
#
# Track frame offsets: 
#        150
#        9455
#        20417
#        32835
#        42127
#        54137
#        64795
#        77380
#        89612
#        99720
#        112905
#        124945
#        136840
#        146540
#        158267
#        169007
#        182042
#        194437
#        206412
#        218800
#        230100
#        242352
#        254665
#        267685
#        282060
#        294220
#        305325
#        317142
#        328952
#        343457
#        354840
#
# Disc length: 4763 seconds
#
# Revision: 1
# Processed by: cddbd v1.5.2PL0 Copyright (c) Steve Scherf et al.
# Submitted via: ExactAudioCopy v1.0b3
#
DISCID=bf12991f
DTITLE=Sam Cooke - Portrait Of A Legend 1951–1964
DYEAR=2003
DGENRE=Soul
TTITLE0=Touch The Hem Of His Garment
TTITLE1=Lovable
TTITLE2=You Send Me
TTITLE3=Only Sixteen
TTITLE4=(I Love You) For Sentimental Reasons
TTITLE5=Just For You
TTITLE6=Win Your Love For Me
TTITLE7=Everybody Loves To Cha Cha Cha
TTITLE8=I’ll Come Running Back To You
TTITLE9=You Were Made For Me
TTITLE10=Sad Mood
TTITLE11=Cupid
TTITLE12=(What A) Wonderful World
TTITLE13=Chain Gang
TTITLE14=Summertime
TTITLE15=Little Red Rooster
TTITLE16=Bring It On Home To Me
TTITLE17=Nothing Can Change This Love
TTITLE18=Sugar Dumpling
TTITLE19=(Ain’t That) Good News
TTITLE20=Meet Me At Mary’s Place
TTITLE21=Twistin’ The Night Away
TTITLE22=Shake
TTITLE23=Tennessee Waltz
TTITLE24=Another Saturday Night
TTITLE25=Good Times
TTITLE26=Having A Party
TTITLE27=That’s Where It’s At
TTITLE28=A Change Is Gonna Come
TTITLE29=Jesus Gave Me Water
TTITLE30=Soul
EXTD=
EXTT0=
EXTT1=
EXTT2=
EXTT3=
EXTT4=
EXTT5=
EXTT6=
EXTT7=
EXTT8=
EXTT9=
EXTT10=
EXTT11=
EXTT12=
EXTT13=
EXTT14=
EXTT15=
EXTT16=
EXTT17=
EXTT18=
EXTT19=
EXTT20=
EXTT21=
EXTT22=
EXTT23=
EXTT24=
EXTT25=
EXTT26=
EXTT27=
EXTT28=
EXTT29=
EXTT30=
PLAYORDER=
